<?xml version="1.0" encoding="UTF-8" standalone="no"?>
<svg
   version="1.1"
   id="Layer_1"
   viewBox="0 0 640 640"
   xml:space="preserve"
   sodipodi:docname="logo.svg"
   width="512"
   height="512"
   inkscape:export-filename="..\dev\personal\ScholarChart\src\logo.png"
   inkscape:export-xdpi="192"
   inkscape:export-ydpi="192"
   inkscape:version="1.3.2 (091e20e, 2023-11-25, custom)"
   xmlns:inkscape="http://www.inkscape.org/namespaces/inkscape"
   xmlns:sodipodi="http://sodipodi.sourceforge.net/DTD/sodipodi-0.dtd"
   xmlns="http://www.w3.org/2000/svg"
   xmlns:svg="http://www.w3.org/2000/svg"><defs
   id="defs9" /><sodipodi:namedview
   id="namedview9"
   pagecolor="#ffffff"
   bordercolor="#000000"
   borderopacity="0.25"
   inkscape:showpageshadow="2"
   inkscape:pageopacity="0.0"
   inkscape:pagecheckerboard="0"
   inkscape:deskcolor="#d1d1d1"
   inkscape:zoom="0.79394531"
   inkscape:cx="52.900369"
   inkscape:cy="282.76507"
   inkscape:window-width="1920"
   inkscape:window-height="1009"
   inkscape:window-x="1912"
   inkscape:window-y="-8"
   inkscape:window-maximized="1"
   inkscape:current-layer="Layer_1" />








<g
   id="g10"
   transform="translate(64,64)"><path
     style="fill:#576d7e"
     d="m 278.43,512 h -44.86 c -6.168,0 -11.8,-3.495 -14.547,-9.021 l -11.784,-23.487 h 97.524 l -11.784,23.487 c -2.748,5.526 -8.38,9.021 -14.549,9.021 z"
     id="path1" /><path
     style="fill:#c9d5dd"
     d="m 190.984,365.714 h 130.032 c 4.486,0 8.127,3.641 8.127,8.127 v 89.397 c 0,8.98 -7.274,16.254 -16.254,16.254 H 199.111 c -8.98,0 -16.254,-7.274 -16.254,-16.254 v -89.397 c 0,-4.486 3.641,-8.127 8.127,-8.127 z"
     id="path2" /><path
     style="fill:#fcd063"
     d="m 256,0 c -85.252,0 -154.413,60.952 -154.413,146.286 0.431,47.738 17.701,93.785 48.762,130.032 15.523,19.017 40.635,57.458 40.635,89.397 h 130.032 c 0,-31.939 25.112,-70.38 40.635,-89.397 31.061,-36.246 48.331,-82.294 48.762,-130.032 C 410.413,60.952 341.252,0 256,0 Z"
     id="path3" /><path
     style="fill:#f6b545"
     d="M 321.016,365.714 H 190.984 c 0,-8.98 7.274,-16.254 16.254,-16.254 h 99.068 c 7.152,-38.116 36.571,-75.825 42.667,-83.383 25.21,-29.249 40.741,-65.593 44.455,-104.025 0.683,-8.883 8.078,-15.75 16.985,-15.766 v 0 c -0.203,47.779 -17.497,93.899 -48.762,130.032 -6.014,7.396 -36.328,46.243 -40.635,82.164 z"
     id="path4" /><g
     id="g6">
	<path
   style="fill:#ffe27a"
   d="m 148.155,105.651 c -4.486,0.065 -8.176,-3.527 -8.241,-8.013 -0.024,-1.463 0.358,-2.909 1.089,-4.177 C 163.58,50.916 207.831,24.332 256,24.381 c 4.486,0 8.127,3.641 8.127,8.127 0,4.486 -3.641,8.127 -8.127,8.127 -42.285,0.033 -81.059,23.503 -100.693,60.952 -1.471,2.552 -4.21,4.104 -7.152,4.064 z"
   id="path5" />
	<path
   style="fill:#ffe27a"
   d="m 134.095,162.54 c -4.486,0 -8.127,-3.641 -8.127,-8.127 0,-8.737 0.87,-17.449 2.601,-26.006 0.894,-4.486 5.266,-7.396 9.752,-6.502 4.486,0.894 7.396,5.266 6.502,9.752 -1.625,7.477 -2.495,15.1 -2.601,22.756 0,4.486 -3.641,8.127 -8.127,8.127 z"
   id="path6" />
</g><path
     style="fill:#ecf0f9"
     d="m 304.762,146.286 c -17.953,0 -32.508,14.555 -32.508,32.508 v 16.254 h -24.381 v -16.254 c 0,-17.952 -14.555,-32.508 -32.508,-32.508 -17.953,0 -32.508,14.555 -32.508,32.508 0,17.953 14.555,32.508 32.508,32.508 h 16.254 V 349.46 h 16.254 V 211.302 h 24.381 V 349.46 h 16.254 V 211.302 h 16.254 c 17.952,0 32.508,-14.555 32.508,-32.508 0,-17.953 -14.556,-32.508 -32.508,-32.508 z m -89.397,48.762 c -8.98,0 -16.254,-7.274 -16.254,-16.254 0,-8.98 7.274,-16.254 16.254,-16.254 8.98,0 16.254,7.274 16.254,16.254 v 16.254 z m 89.397,0 h -16.254 v -16.254 c 0,-8.98 7.274,-16.254 16.254,-16.254 8.98,0 16.254,7.274 16.254,16.254 0,8.98 -7.274,16.254 -16.254,16.254 z"
     id="path7" /><g
     id="g8">
	<rect
   x="231.619"
   y="349.45999"
   style="fill:#c9d5e3"
   width="16.254"
   height="16.254"
   id="rect7" />
	<rect
   x="272.254"
   y="349.45999"
   style="fill:#c9d5e3"
   width="16.254"
   height="16.254"
   id="rect8" />
</g><g
     id="g9">
	<path
   style="fill:#b2c4d0"
   d="M 296.635,463.238 H 182.857 v 0 -16.254 0 h 97.524 c 8.98,0 16.254,7.274 16.254,16.254 z"
   id="path8" />
	<path
   style="fill:#b2c4d0"
   d="m 231.619,381.968 h 97.524 v 0 16.254 0 H 215.365 v 0 0 c 0,-8.98 7.274,-16.254 16.254,-16.254 z"
   id="path9" />
	<rect
   x="182.85699"
   y="414.47601"
   style="fill:#b2c4d0"
   width="146.286"
   height="16.254"
   id="rect9" />
</g><polygon
     style="fill:#35495c"
     points="296.635,495.746 304.762,479.492 207.238,479.492 215.365,495.746 "
     id="polygon9" /></g>
</svg>
