<?xml version="1.0" encoding="UTF-8" standalone="no"?>
<!-- Uploaded to: SVG Repo, www.svgrepo.com, Generator: SVG Repo Mixer Tools -->

<svg
   width="800"
   height="800"
   viewBox="0 0 1200 1200"
   class="icon"
   version="1.1"
   id="svg6"
   sodipodi:docname="logo.svg"
   xml:space="preserve"
   inkscape:version="1.3.2 (091e20e, 2023-11-25, custom)"
   xmlns:inkscape="http://www.inkscape.org/namespaces/inkscape"
   xmlns:sodipodi="http://sodipodi.sourceforge.net/DTD/sodipodi-0.dtd"
   xmlns="http://www.w3.org/2000/svg"
   xmlns:svg="http://www.w3.org/2000/svg"><defs
     id="defs6" /><sodipodi:namedview
     id="namedview6"
     pagecolor="#ffffff"
     bordercolor="#000000"
     borderopacity="0.25"
     inkscape:showpageshadow="2"
     inkscape:pageopacity="0.0"
     inkscape:pagecheckerboard="0"
     inkscape:deskcolor="#d1d1d1"
     showgrid="false"
     inkscape:zoom="0.35929863"
     inkscape:cx="858.61724"
     inkscape:cy="588.64683"
     inkscape:window-width="1920"
     inkscape:window-height="1009"
     inkscape:window-x="-8"
     inkscape:window-y="-8"
     inkscape:window-maximized="1"
     inkscape:current-layer="svg6" /><g
     id="g6"
     transform="matrix(-1,0,0,1,1112,98.233172)"><path
       d="M 192,426.66667 H 832 V 704 H 192 Z"
       fill="#37474F"
       id="path1"
       style="fill:#5b5d59;fill-opacity:1" /><path
       d="m 192,704 a 320,128 0 1 0 640,0 320,128 0 1 0 -640,0 z"
       fill="#37474F"
       id="path2"
       style="fill:#5b5d59;fill-opacity:1" /><path
       d="m 492.8,174.93333 -480,211.2 c -17.066667,8.53334 -17.066667,32 0,40.53334 l 480,211.2 c 12.8,4.26666 25.6,4.26666 38.4,0 l 480,-211.2 c 17.0667,-8.53334 17.0667,-32 0,-40.53334 l -480,-211.2 c -12.8,-6.4 -25.6,-6.4 -38.4,0 z"
       fill="#78909C"
       id="path3"
       style="fill:#6b7172;fill-opacity:1" /><path
       d="M 921.6,435.2 494.93333,362.66667 c -10.66666,-2.13334 -23.46666,6.4 -25.6,17.06666 -2.13333,10.66667 6.4,23.46667 17.06667,25.6 L 896,473.6 v 315.73333 c 0,12.8 8.53333,21.33334 21.33333,21.33334 12.8,0 21.33334,-8.53334 21.33334,-21.33334 v -332.8 c 0,-10.66666 -8.53334,-19.2 -17.06667,-21.33333 z"
       fill="#37474F"
       id="path4"
       style="fill:#edcc3b;fill-opacity:1" /><path
       d="m 917.33333,789.33333 m -42.66666,0 a 42.666667,42.666667 0 1 0 85.33333,0 42.666667,42.666667 0 1 0 -85.33333,0 z"
       fill="#37474F"
       id="path5"
       style="fill:#edcc3b;fill-opacity:1" /><path
       d="m 981.33333,853.33333 c 0,36.26667 -64,128 -64,128 0,0 -64,-91.73333 -64,-128 0,-36.26666 27.73334,-64 64,-64 36.26667,0 64,27.73334 64,64 z"
       fill="#37474F"
       id="path6"
       style="fill:#edcc3b;fill-opacity:1" /></g></svg>
